<svg width="80" height="30" viewBox="0 0 80 30" fill="none" xmlns="http://www.w3.org/2000/svg">
<mask id="mask0_4_10" style="mask-type:luminance" maskUnits="userSpaceOnUse" x="0" y="0" width="80" height="30">
<path d="M80 0.333344H0V29.6667H80V0.333344Z" fill="white" style="fill:white;fill-opacity:1;"/>
</mask>
<g mask="url(#mask0_4_10)">
<path fill-rule="evenodd" clip-rule="evenodd" d="M36.049 22.7132H39.4163C39.9962 22.6908 40.5571 22.4959 41.0304 22.1525C41.5037 21.809 41.8689 21.3319 42.0813 20.7796C42.7829 19.374 43.1376 17.8141 43.1142 16.236V15.9084H54.6314V16.4896C54.6404 18.1974 54.3966 19.8967 53.9083 21.5298C53.4307 23.0825 52.6857 24.5354 51.7081 25.8198C50.7232 27.0922 49.4649 28.1154 48.0309 28.8101C46.4644 29.5457 44.7548 29.907 43.0316 29.8667H25.4718V15.9084H36.1007L36.049 22.7132ZM0.671328 21.0015C1.68748 21.6322 2.81347 22.0556 3.98704 22.2483C5.45536 22.6387 6.96339 22.8515 8.48023 22.8823C10.2878 22.8823 11.1865 22.523 11.1865 21.8256C11.1253 21.4357 10.961 21.0703 10.7114 20.769C10.3108 20.2356 9.82546 19.7748 9.27563 19.4059C7.7542 18.3595 6.3173 17.1899 4.97867 15.9084H18.6339C19.4912 16.5971 20.2615 17.3922 20.927 18.2753C21.6258 19.162 22.0565 20.2379 22.1665 21.3713V22.0687C22.1665 25.0344 21.1026 27.1477 18.9748 28.4086C16.5035 29.7683 13.7221 30.4286 10.918 30.3211C9.88506 30.3211 8.85216 30.2577 7.8192 30.1521C6.78629 30.0464 5.67073 29.8667 4.53452 29.6871L2.07615 29.2433L0.671328 21.0015ZM61.6136 14.7778L61.5517 14.7144C59.0934 12.3158 57.8645 10.0335 57.8645 7.88846C57.8645 5.91604 58.8976 4.15497 60.9632 2.60521C63.3014 1.01717 66.0709 0.225736 68.8755 0.343988C69.8002 0.344692 70.7244 0.397605 71.6433 0.502485C72.5734 0.597584 73.7095 0.734947 74.9698 0.914577C76.2297 1.09421 77.1283 1.18931 77.5728 1.24214L78.8433 10.435C77.8177 9.6237 76.6747 8.98188 75.4549 8.53301C74.2756 8.25559 73.0707 8.1103 71.8605 8.09976C71.154 8.06831 70.4491 8.19449 69.7949 8.46962C69.2677 8.72319 68.9993 9.04019 68.9993 9.43118C68.9993 9.99121 69.5158 10.6463 70.5281 11.4177C72.6833 12.897 74.2121 13.9853 75.1139 14.6827L75.2073 14.7567L61.6136 14.7778ZM43.1555 14.7778V14.6616C43.1262 13.264 42.7983 11.89 42.1949 10.6358C41.9708 10.0743 41.5895 9.59313 41.0987 9.2528C40.608 8.91248 40.0298 8.72826 39.437 8.72324H36.0903V14.7778H25.4202V0.967414H42.9799C45.1614 0.926901 47.2967 1.61298 49.0638 2.92221C50.8243 4.24844 52.2106 6.02742 53.082 8.07863C53.9964 10.1631 54.5049 12.4098 54.5796 14.6933V14.7778H43.1555ZM3.79078 14.7778L3.57384 14.5559C1.21878 12.2207 0.0412598 9.99121 0.0412598 7.88846C0.0412598 5.78573 1.07419 4.14792 3.14003 2.60521C5.47852 1.01717 8.24779 0.225736 11.0523 0.343988C11.9772 0.344412 12.9013 0.397325 13.8205 0.502485C14.7501 0.597584 15.8863 0.734947 17.1568 0.914577C18.4273 1.09421 19.3053 1.18931 19.7495 1.24214L20.927 10.5301C19.9259 9.66493 18.7869 8.98226 17.5597 8.51188C16.3805 8.23386 15.1752 8.08863 13.9651 8.07863C13.2757 8.05477 12.5892 8.18084 11.9509 8.44849C11.4241 8.70205 11.1555 9.01906 11.1555 9.41005C11.1555 9.97008 11.672 10.6252 12.6843 11.3965C14.7501 12.823 16.2685 13.8797 17.1775 14.5665L17.2704 14.6405L17.4047 14.7461L3.79078 14.7778ZM58.5358 21.0015C59.5566 21.6299 60.6857 22.0531 61.8617 22.2483C63.3297 22.6401 64.8382 22.8529 66.3553 22.8823C68.1525 22.8823 69.0511 22.5301 69.0511 21.8256C68.9924 21.4349 68.8275 21.0688 68.5756 20.769C68.1765 20.238 67.6952 19.7775 67.1503 19.4059C65.628 18.3566 64.1877 17.1873 62.8431 15.9084H76.4981C77.3615 16.5941 78.1352 17.3895 78.8017 18.2753C79.4965 19.1645 79.9265 20.2391 80.0413 21.3713V22.0687C80.0413 25.0379 79.0082 27.1617 76.8497 28.4086C74.3775 29.7659 71.5964 30.4261 68.7928 30.3211C67.7597 30.3211 66.7267 30.2577 65.6941 30.1521C64.6611 30.0464 63.5351 29.8667 62.3991 29.6871L59.9509 29.2433L58.5358 21.0015Z" fill="#353535" style="fill:#353535;fill:color(display-p3 0.2083 0.2083 0.2083);fill-opacity:1;"/>
</g>
</svg>
