<svg width="50" height="50" viewBox="0 0 50 50" fill="none" xmlns="http://www.w3.org/2000/svg">
<rect x="50" width="50" height="50" rx="25" transform="rotate(90 50 0)" fill="#38A253"/>
<path d="M25 31.6347C24.8621 31.6349 24.7255 31.6088 24.5981 31.558C24.4707 31.5073 24.355 31.4328 24.2577 31.3389L13.7577 21.2428C13.3474 20.8483 13.3474 20.2094 13.7577 19.8152C14.168 19.4209 14.8323 19.4207 15.2424 19.8152L25 29.1975L34.7577 19.8152C35.168 19.4207 35.8323 19.4207 36.2424 19.8152C36.6524 20.2097 36.6527 20.8485 36.2424 21.2428L25.7424 31.3389C25.645 31.4328 25.5293 31.5073 25.4019 31.558C25.2745 31.6088 25.1379 31.6349 25 31.6347Z" fill="#FBFBFB"/>
</svg>
