<svg width="168" height="119" viewBox="0 0 168 119" fill="none" xmlns="http://www.w3.org/2000/svg">
<g opacity="0.5">
<path fill-rule="evenodd" clip-rule="evenodd" d="M104.207 42.5C102.449 42.5 101.296 44.3528 101.966 45.9755C104.527 52.182 105.94 58.9818 105.94 66.1111C105.94 95.3208 82.2246 119 52.97 119C23.7155 119 0 95.3208 0 66.1111C0 39.9686 18.9963 18.2562 43.9584 13.9845C44.8081 13.8391 45.5202 13.2613 45.8765 12.4775C49.2215 5.11825 56.6454 0 65.2666 0H146.613C158.367 0 167.896 9.51395 167.896 21.25C167.896 32.986 158.367 42.5 146.613 42.5H104.207Z" fill="#323232"/>
<path d="M104.207 42C102.066 42 100.709 44.2397 101.504 46.1662C104.041 52.3133 105.44 59.0484 105.44 66.1111C105.44 95.044 81.9491 118.5 52.97 118.5C23.9909 118.5 0.5 95.044 0.5 66.1111C0.5 40.2169 19.3162 18.7088 44.0427 14.4774C45.0657 14.3023 45.911 13.6098 46.3317 12.6844C49.5984 5.49736 56.8483 0.5 65.2666 0.5H146.613C158.092 0.5 167.396 9.79081 167.396 21.25C167.396 32.7092 158.092 42 146.613 42H104.207Z" stroke="#B7B7B7" stroke-opacity="0.27"/>
</g>
<path d="M100.149 65.9802C100.149 92.0087 79.0484 113.109 53.0199 113.109C26.9915 113.109 5.89124 92.0087 5.89124 65.9802C5.89124 39.9517 26.9915 18.8515 53.0199 18.8515C79.0484 18.8515 100.149 39.9517 100.149 65.9802Z" fill="#38A554"/>
<path d="M100.149 65.9802C100.149 92.0087 79.0484 113.109 53.0199 113.109C26.9915 113.109 5.89124 92.0087 5.89124 65.9802C5.89124 39.9517 26.9915 18.8515 53.0199 18.8515C79.0484 18.8515 100.149 39.9517 100.149 65.9802Z" fill="url(#paint0_linear_57_358)" fill-opacity="0.1"/>
<path d="M50.074 21.5025C50.074 12.8806 57.0225 5.89111 65.5938 5.89111H146.485C155.056 5.89111 162.005 12.8806 162.005 21.5025C162.005 30.1244 155.056 37.1139 146.485 37.1139H65.5938C57.0225 37.1139 50.074 30.1244 50.074 21.5025Z" fill="white"/>
<path d="M69.5316 62.9599C71.8656 64.3023 71.8656 67.6582 69.5316 69.0005L45.9 82.5919C43.566 83.9343 40.6485 82.2563 40.6485 79.5716L40.6485 52.3888C40.6485 49.7041 43.566 48.0261 45.9 49.3685L69.5316 62.9599Z" fill="white"/>
<path d="M140.051 17.5146H143.299C144.122 17.5146 144.788 17.7655 145.297 18.2673C145.81 18.769 146.066 19.4294 146.066 20.2484C146.066 21.0637 145.803 21.7241 145.275 22.2295C144.747 22.7312 144.061 22.9821 143.216 22.9821H141.722V25.5H140.051V17.5146ZM141.722 18.8372V21.6761H142.851C143.331 21.6761 143.703 21.5525 143.969 21.3053C144.235 21.0582 144.367 20.7077 144.367 20.2539C144.367 19.8001 144.235 19.4515 143.969 19.208C143.707 18.9608 143.336 18.8372 142.857 18.8372H141.722Z" fill="#353535"/>
<path d="M131.853 18.4886C132.547 17.747 133.486 17.3763 134.67 17.3763C135.854 17.3763 136.791 17.747 137.481 18.4886C138.175 19.2301 138.521 20.2373 138.521 21.5101C138.521 22.7792 138.175 23.7845 137.481 24.526C136.787 25.2676 135.85 25.6383 134.67 25.6383C133.486 25.6383 132.547 25.2676 131.853 24.526C131.163 23.7845 130.818 22.7792 130.818 21.5101C130.818 20.2373 131.163 19.2301 131.853 18.4886ZM136.23 19.5123C135.843 19.018 135.323 18.7708 134.67 18.7708C134.017 18.7708 133.495 19.018 133.104 19.5123C132.716 20.0067 132.523 20.6726 132.523 21.5101C132.523 22.3438 132.716 23.0079 133.104 23.5023C133.491 23.9929 134.013 24.2383 134.67 24.2383C135.323 24.2383 135.843 23.9929 136.23 23.5023C136.618 23.0079 136.811 22.3438 136.811 21.5101C136.811 20.6726 136.618 20.0067 136.23 19.5123Z" fill="#353535"/>
<path d="M125.354 22.069V20.7685H126.411C126.809 20.7685 127.132 20.6671 127.379 20.4642C127.63 20.2613 127.755 19.9956 127.755 19.6673C127.755 19.339 127.637 19.0807 127.401 18.8926C127.165 18.7044 126.842 18.6103 126.433 18.6103C126.019 18.6103 125.686 18.7136 125.431 18.9202C125.176 19.1268 125.038 19.4054 125.016 19.7558H123.472C123.498 19.0032 123.78 18.4074 124.319 17.9684C124.861 17.5294 125.58 17.3099 126.477 17.3099C127.333 17.3099 128.025 17.5109 128.552 17.9131C129.083 18.3115 129.349 18.8317 129.349 19.4736C129.349 19.9237 129.211 20.3166 128.934 20.6523C128.657 20.988 128.294 21.2039 127.844 21.2998V21.3441C128.382 21.4031 128.81 21.6097 129.128 21.9638C129.445 22.3143 129.604 22.757 129.604 23.292C129.604 23.9929 129.305 24.5703 128.707 25.0241C128.113 25.4778 127.357 25.7047 126.438 25.7047C125.523 25.7047 124.78 25.4797 124.208 25.0296C123.636 24.5758 123.332 23.9763 123.295 23.2311H124.894C124.92 23.5742 125.073 23.8472 125.354 24.0501C125.634 24.253 126.001 24.3545 126.455 24.3545C126.883 24.3545 127.228 24.2475 127.49 24.0335C127.755 23.8158 127.888 23.5318 127.888 23.1813C127.888 22.8345 127.759 22.5633 127.501 22.3678C127.242 22.1686 126.885 22.069 126.427 22.069H125.354Z" fill="#353535"/>
<path d="M122.075 22.9821C122.075 23.7347 121.819 24.3434 121.306 24.8083C120.797 25.2694 120.131 25.5 119.308 25.5H116.032V17.5146H121.339V18.8926H117.703V20.514H119.253C120.09 20.514 120.769 20.7409 121.289 21.1947C121.813 21.6484 122.075 22.2442 122.075 22.9821ZM117.703 24.1663H118.893C119.362 24.1663 119.723 24.0649 119.978 23.862C120.236 23.6591 120.365 23.3658 120.365 22.9821C120.365 22.5984 120.236 22.3033 119.978 22.0967C119.723 21.8901 119.36 21.7868 118.887 21.7868H117.703V24.1663Z" fill="#353535"/>
<path d="M107.834 18.4886C108.528 17.747 109.467 17.3763 110.651 17.3763C111.835 17.3763 112.772 17.747 113.462 18.4886C114.156 19.2301 114.503 20.2373 114.503 21.5101C114.503 22.7792 114.156 23.7845 113.462 24.526C112.769 25.2676 111.832 25.6383 110.651 25.6383C109.467 25.6383 108.528 25.2676 107.834 24.526C107.144 23.7845 106.799 22.7792 106.799 21.5101C106.799 20.2373 107.144 19.2301 107.834 18.4886ZM112.212 19.5123C111.824 19.018 111.304 18.7708 110.651 18.7708C109.998 18.7708 109.476 19.018 109.085 19.5123C108.698 20.0067 108.504 20.6726 108.504 21.5101C108.504 22.3438 108.698 23.0079 109.085 23.5023C109.472 23.9929 109.994 24.2383 110.651 24.2383C111.304 24.2383 111.824 23.9929 112.212 23.5023C112.599 23.0079 112.793 22.3438 112.793 21.5101C112.793 20.6726 112.599 20.0067 112.212 19.5123Z" fill="#353535"/>
<path d="M98.8501 18.4886C99.5437 17.747 100.483 17.3763 101.667 17.3763C102.851 17.3763 103.788 17.747 104.478 18.4886C105.172 19.2301 105.518 20.2373 105.518 21.5101C105.518 22.7792 105.172 23.7845 104.478 24.526C103.784 25.2676 102.847 25.6383 101.667 25.6383C100.483 25.6383 99.5437 25.2676 98.8501 24.526C98.1602 23.7845 97.8153 22.7792 97.8153 21.5101C97.8153 20.2373 98.1602 19.2301 98.8501 18.4886ZM103.227 19.5123C102.84 19.018 102.32 18.7708 101.667 18.7708C101.014 18.7708 100.492 19.018 100.101 19.5123C99.7134 20.0067 99.5197 20.6726 99.5197 21.5101C99.5197 22.3438 99.7134 23.0079 100.101 23.5023C100.488 23.9929 101.01 24.2383 101.667 24.2383C102.32 24.2383 102.84 23.9929 103.227 23.5023C103.615 23.0079 103.808 22.3438 103.808 21.5101C103.808 20.6726 103.615 20.0067 103.227 19.5123Z" fill="#353535"/>
<path d="M96.3963 24.1165V25.5H91.1059V17.5146H96.3963V18.8926H92.7772V20.8184H96.1915V22.1022H92.7772V24.1165H96.3963Z" fill="#353535"/>
<path d="M84.4243 22.152C84.3911 22.6353 84.3357 23.0282 84.2582 23.3307C84.1808 23.6296 84.059 23.8767 83.893 24.0723V24.1165H87.1525V18.887H84.6345L84.4243 22.152ZM83.0574 25.5V27.0771H81.5411V24.1165H82.1C82.3657 23.9358 82.5538 23.6867 82.6645 23.3695C82.7752 23.0485 82.849 22.6003 82.8858 22.0247L83.1625 17.5146H88.8237V24.1165H89.8198V27.0771H88.309V25.5H83.0574Z" fill="#353535"/>
<path d="M78.6727 25.5V20.099H78.6063L74.9817 25.5H73.3713V17.5146H75.037V22.9212H75.1034L78.7281 17.5146H80.3384V25.5H78.6727Z" fill="#353535"/>
<path d="M69.2071 25.5H65.671V17.5146H69.1462C69.8951 17.5146 70.4891 17.6936 70.9281 18.0514C71.3671 18.4093 71.5866 18.8944 71.5866 19.5068C71.5866 19.9422 71.4428 20.324 71.155 20.6523C70.8709 20.9807 70.5149 21.1762 70.087 21.2389V21.2832C70.633 21.3238 71.0831 21.5248 71.4372 21.8864C71.7914 22.2479 71.9685 22.6906 71.9685 23.2145C71.9685 23.9192 71.7213 24.4762 71.2269 24.8857C70.7326 25.2952 70.0593 25.5 69.2071 25.5ZM67.3422 18.7598V20.835H68.543C68.9894 20.835 69.3344 20.7427 69.5779 20.5583C69.8214 20.3701 69.9431 20.1063 69.9431 19.7669C69.9431 19.446 69.8361 19.1988 69.6221 19.0254C69.4082 18.8483 69.1056 18.7598 68.7146 18.7598H67.3422ZM67.3422 24.2549H68.781C69.2643 24.2549 69.6314 24.1553 69.8822 23.9561C70.1368 23.7531 70.2641 23.4617 70.2641 23.0817C70.2641 22.7091 70.1331 22.425 69.8712 22.2295C69.6129 22.034 69.2366 21.9362 68.7422 21.9362H67.3422V24.2549Z" fill="#353535"/>
<defs>
<linearGradient id="paint0_linear_57_358" x1="53.0199" y1="18.8515" x2="53.0199" y2="146.989" gradientUnits="userSpaceOnUse">
<stop stop-opacity="0"/>
<stop offset="1"/>
</linearGradient>
</defs>
</svg>
