<svg width="36" height="36" viewBox="0 0 36 36" fill="none" xmlns="http://www.w3.org/2000/svg">
<circle cx="18" cy="18" r="18" fill="#38A253"/>
<path fill-rule="evenodd" clip-rule="evenodd" d="M11.8115 11.0357C11.1826 11.1885 10.8573 11.7847 11.0601 12.4126C11.1111 12.5705 11.6566 13.1398 14.0739 15.5579L17.0253 18.5103L14.0739 21.4628C11.6566 23.8809 11.1111 24.4501 11.0601 24.608C10.7891 25.447 11.4905 26.1958 12.3208 25.9539C12.5757 25.8797 12.6798 25.7819 15.5422 22.9297L18.5001 19.9823L21.4581 22.9283C23.8807 25.3411 24.451 25.8855 24.6092 25.9364C25.4766 26.2156 26.2198 25.4738 25.9401 24.608C25.8891 24.4501 25.3437 23.8809 22.9263 21.4628L19.9749 18.5103L22.9263 15.5579C25.3437 13.1398 25.8891 12.5705 25.9401 12.4126C26.2113 11.5731 25.5103 10.8247 24.6795 11.0667C24.4245 11.141 24.3205 11.2387 21.4581 14.0909L18.5001 17.0383L15.5422 14.0909C12.6841 11.2431 12.5753 11.1409 12.3219 11.067C12.0375 10.9842 12.0263 10.9835 11.8115 11.0357Z" fill="#F9F9F9"/>
</svg>
