<svg width="32" height="32" viewBox="0 0 32 32" fill="none" xmlns="http://www.w3.org/2000/svg">
<circle cx="16" cy="16" r="16" fill="#38A253"/>
<path d="M23.2515 11.058C23.0042 11.3026 17.0344 16.4007 16.9148 16.4695C16.7746 16.55 16.7103 16.5649 16.5 16.5649C16.2897 16.5649 16.2254 16.55 16.0852 16.4695C15.9656 16.4007 9.99577 11.3026 9.74848 11.058C9.72956 11.0393 12.4282 11.0268 16.5 11.0268C20.5718 11.0268 23.2704 11.0393 23.2515 11.058Z" fill="#F9F9F9"/>
<path fill-rule="evenodd" clip-rule="evenodd" d="M11.4444 13.8587C12.774 15.0014 13.8659 15.9476 13.8708 15.9615C13.8789 15.984 9.0574 19.3253 9.01678 19.3253C9.00765 19.3253 9.00015 17.6279 9.00015 15.5533C9.00015 13.4787 9.00622 11.7812 9.01362 11.7812C9.02102 11.7812 10.1149 12.7161 11.4444 13.8587ZM23.9867 19.316C23.966 19.3374 19.1189 15.9901 19.1292 15.9615C19.1341 15.9476 20.2284 14.9994 21.5607 13.8543L23.9833 11.7724L23.9917 15.5373C23.9963 17.6079 23.9941 19.3084 23.9867 19.316ZM15.1708 17.0602C15.496 17.3315 15.7949 17.4897 16.1087 17.5564C16.4297 17.6246 16.5703 17.6246 16.8913 17.5564C17.2051 17.4897 17.5041 17.3315 17.8292 17.0602L18.1924 16.7571L18.3086 16.6603L21.1505 18.6189L23.9924 20.5776L23.9381 20.696C23.9082 20.7612 23.833 20.8498 23.7709 20.8929L23.6582 20.9713H16.5H9.34183L9.22906 20.8929C9.16704 20.8498 9.09184 20.7612 9.06191 20.696L9.00755 20.5776L11.8495 18.6189L14.6914 16.6603L14.8076 16.7571L15.1708 17.0602Z" fill="#F9F9F9"/>
</svg>
