<svg width="64" height="64" viewBox="0 0 64 64" fill="none" xmlns="http://www.w3.org/2000/svg">
<circle cx="32.0494" cy="31.9565" r="31.9565" fill="#288C42"/>
<circle cx="32.0486" cy="31.9565" r="25.5652" fill="#38A554"/>
<g clip-path="url(#clip0_125_5)">
<path d="M27.3481 34.0129L34.1055 27.2555C33.6594 26.7487 33.11 26.3433 32.4943 26.0663C31.8786 25.7893 31.2107 25.6471 30.5356 25.6494C27.8894 25.6524 25.7451 27.7968 25.7421 30.4429C25.7398 31.1181 25.8819 31.7859 26.1589 32.4016C26.4359 33.0174 26.8414 33.5667 27.3481 34.0129ZM18.53 45.6854L45.7775 18.4379C45.9747 18.2409 45.9748 17.9214 45.7777 17.7242C45.5807 17.527 45.2612 17.5269 45.064 17.724L17.8166 44.9714C17.7219 45.066 17.6688 45.1943 17.6688 45.3281C17.6688 45.4619 17.7219 45.5902 17.8166 45.6849C17.9127 45.7766 18.0404 45.8278 18.1732 45.8279C18.306 45.828 18.4338 45.7769 18.53 45.6854ZM30.7949 22.2208H30.8141C30.9377 22.2168 31.0556 22.1675 31.1453 22.0822C31.235 21.997 31.2902 21.8818 31.3005 21.7586L31.6032 18.1255C31.6091 18.0558 31.6003 17.9857 31.5776 17.9196C31.5549 17.8534 31.5186 17.7927 31.4712 17.7413C31.4237 17.6899 31.3661 17.649 31.302 17.621C31.2379 17.5931 31.1686 17.5788 31.0987 17.5791H30.4755C30.4056 17.5788 30.3364 17.5931 30.2722 17.621C30.2081 17.649 30.1505 17.6899 30.103 17.7413C30.0556 17.7927 30.0194 17.8534 29.9966 17.9196C29.9739 17.9857 29.9652 18.0558 29.971 18.1255L30.2737 21.7611C30.2851 21.8899 30.3455 22.0094 30.4425 22.095C30.5395 22.1805 30.6657 22.2256 30.7949 22.2208ZM18.2152 31.5106L21.834 31.2079C21.9605 31.1974 22.0783 31.1396 22.164 31.0461C22.2498 30.9526 22.2972 30.8302 22.2967 30.7034V30.6529C22.2971 30.5256 22.2493 30.4028 22.1629 30.3092C22.0766 30.2156 21.958 30.1581 21.831 30.1484L18.2116 29.8719C18.1422 29.8666 18.0725 29.8757 18.0068 29.8987C17.9411 29.9217 17.8808 29.958 17.8298 30.0054C17.7788 30.0528 17.7382 30.1103 17.7105 30.1741C17.6827 30.238 17.6685 30.3069 17.6687 30.3765V31.0052C17.6683 31.0752 17.6825 31.1445 17.7104 31.2088C17.7383 31.273 17.7792 31.3307 17.8306 31.3783C17.882 31.4258 17.9428 31.4621 18.009 31.4849C18.0752 31.5077 18.1454 31.5165 18.2152 31.5106ZM25.8758 23.2118C25.9495 23.318 26.0613 23.3919 26.188 23.4181C26.3147 23.4443 26.4466 23.4208 26.5564 23.3526L26.5725 23.3424C26.6777 23.2771 26.7552 23.1755 26.7903 23.0567C26.8254 22.938 26.8156 22.8105 26.7628 22.6986L25.2076 19.3991C25.1778 19.3363 25.1354 19.2804 25.0829 19.2347C25.0305 19.1891 24.9691 19.1548 24.9028 19.134C24.8365 19.1132 24.7665 19.1064 24.6974 19.1139C24.6283 19.1214 24.5615 19.1431 24.5012 19.1776L23.9603 19.49C23.8998 19.5248 23.8473 19.5719 23.8059 19.6281C23.7646 19.6843 23.7353 19.7485 23.7201 19.8166C23.7048 19.8847 23.7038 19.9552 23.7172 20.0237C23.7306 20.0922 23.758 20.1572 23.7978 20.2146L25.8758 23.2118ZM23.4144 34.906C23.3506 34.7958 23.2476 34.7138 23.126 34.6764C23.0044 34.6389 22.8731 34.6489 22.7584 34.7041L19.4852 36.2734C19.4227 36.3035 19.367 36.3461 19.3218 36.3987C19.2765 36.4513 19.2425 36.5127 19.222 36.579C19.2015 36.6453 19.1949 36.7151 19.2026 36.7841C19.2103 36.853 19.2321 36.9197 19.2668 36.9798L19.5811 37.5243C19.616 37.5847 19.663 37.6373 19.7192 37.6786C19.7755 37.72 19.8396 37.7492 19.9077 37.7645C19.9758 37.7798 20.0464 37.7807 20.1149 37.7674C20.1834 37.754 20.2483 37.7265 20.3057 37.6868L23.2893 35.618C23.3931 35.5458 23.466 35.4372 23.4936 35.3137C23.5212 35.1903 23.5014 35.061 23.4381 34.9514L23.4144 34.906ZM37.077 19.1776C37.0165 19.1427 36.9495 19.1207 36.8801 19.113C36.8107 19.1053 36.7405 19.112 36.6739 19.1328C36.6072 19.1537 36.5457 19.1881 36.493 19.2339C36.4404 19.2797 36.3978 19.336 36.368 19.3991L34.8129 22.6991C34.7577 22.8161 34.7495 22.9498 34.7901 23.0726C34.8307 23.1954 34.9168 23.298 35.0308 23.3591L35.0479 23.3682C35.157 23.4265 35.2837 23.4428 35.404 23.4139C35.5243 23.3849 35.6298 23.3128 35.7004 23.2112L37.7803 20.2145C37.82 20.1571 37.8475 20.0922 37.8609 20.0237C37.8742 19.9552 37.8732 19.8846 37.858 19.8165C37.8427 19.7484 37.8135 19.6843 37.7721 19.628C37.7308 19.5718 37.6782 19.5248 37.6178 19.4899L37.077 19.1776ZM23.3024 25.7463L20.3067 23.6972C20.2493 23.6579 20.1844 23.6309 20.116 23.618C20.0477 23.605 19.9775 23.6062 19.9097 23.6217C19.8419 23.6371 19.778 23.6664 19.722 23.7077C19.6661 23.749 19.6193 23.8015 19.5846 23.8617L19.2702 24.4062C19.2357 24.4665 19.2141 24.5333 19.2066 24.6024C19.1991 24.6715 19.206 24.7414 19.2268 24.8077C19.2476 24.8741 19.2818 24.9354 19.3274 24.9878C19.373 25.0403 19.429 25.0828 19.4917 25.1126L22.7771 26.6607C22.8913 26.7148 23.0216 26.7241 23.1423 26.6867C23.2631 26.6493 23.3653 26.568 23.429 26.4588L23.4542 26.415C23.5178 26.3049 23.5375 26.1748 23.5093 26.0509C23.4812 25.9269 23.4073 25.8181 23.3024 25.7463ZM45.1432 28.6719L42.3378 29.4237L43.8465 27.1682C43.9243 27.057 43.9792 26.9313 44.0079 26.7987C44.0366 26.666 44.0385 26.5289 44.0137 26.3955C43.9888 26.262 43.9376 26.1349 43.8631 26.0215C43.7885 25.908 43.6921 25.8106 43.5795 25.7348C43.4668 25.6591 43.3402 25.6065 43.2071 25.5802C43.0739 25.5539 42.9368 25.5544 42.8039 25.5817C42.6709 25.609 42.5447 25.6625 42.4326 25.7391C42.3206 25.8157 42.2249 25.9139 42.1512 26.0279L39.3356 30.226L33.982 31.659L31.7568 33.8842L30.3187 39.2429L26.1206 42.0585C25.9564 42.1674 25.8274 42.3215 25.749 42.5022C25.6705 42.6829 25.6461 42.8824 25.6787 43.0767C25.7113 43.2709 25.7994 43.4516 25.9324 43.5968C26.0655 43.7421 26.2377 43.8457 26.4284 43.8951C26.5693 43.9316 26.7163 43.9378 26.8598 43.9135C27.0033 43.8891 27.14 43.8347 27.261 43.7539L29.5165 42.2451L28.7646 45.0506C28.7298 45.1801 28.7209 45.3153 28.7383 45.4483C28.7558 45.5812 28.7992 45.7095 28.8662 45.8257C28.9332 45.9419 29.0225 46.0438 29.1288 46.1255C29.2352 46.2072 29.3566 46.2672 29.4862 46.302C29.6157 46.3367 29.7508 46.3457 29.8838 46.3282C30.0168 46.3108 30.1451 46.2674 30.2613 46.2004C30.3775 46.1334 30.4793 46.0441 30.5611 45.9378C30.6428 45.8314 30.7027 45.71 30.7375 45.5804L31.4894 42.775L32.6852 45.207C32.749 45.3386 32.8407 45.4546 32.954 45.547C33.0673 45.6394 33.1994 45.7059 33.3412 45.7419C33.5795 45.8132 33.8362 45.7897 34.0577 45.6763C34.5623 45.4258 34.7697 44.8147 34.5219 44.3089L32.2916 39.7727L33.5884 34.9388L37.1256 38.4759L37.4636 43.5218C37.5092 44.0793 37.9946 44.4965 38.5527 44.4578C39.1107 44.4191 39.5339 43.939 39.5021 43.3805L39.3204 40.6759L41.3741 42.7296C41.774 43.1295 42.4224 43.1295 42.8223 42.7296C43.2222 42.3297 43.2222 41.6813 42.8223 41.2814L40.7686 39.2277L43.4732 39.4094C44.0317 39.4412 44.5119 39.018 44.5506 38.4599C44.5893 37.9019 44.172 37.4165 43.6145 37.3709L38.5686 37.0328L35.0315 33.4957L39.8654 32.1989L44.4016 34.4292C44.4608 34.4601 44.5235 34.4838 44.5883 34.4998C45.0968 34.6344 45.6244 34.3614 45.8082 33.8685C45.992 33.3757 45.7722 32.8238 45.2997 32.5925L42.8677 31.3967L45.6731 30.6449C45.9337 30.5737 46.1555 30.4021 46.2899 30.1678C46.4244 29.9335 46.4605 29.6555 46.3904 29.3946C46.3204 29.1337 46.1498 28.9112 45.9161 28.7757C45.6823 28.6403 45.4044 28.6029 45.1432 28.6719Z" fill="white"/>
</g>
<defs>
<clipPath id="clip0_125_5">
<rect width="28.7609" height="28.7609" fill="white" transform="translate(17.6686 17.5761)"/>
</clipPath>
</defs>
</svg>
