<svg width="379" height="38" viewBox="0 0 379 38" fill="none" xmlns="http://www.w3.org/2000/svg">
<path fill-rule="evenodd" clip-rule="evenodd" d="M36.0077 26.3808H39.375C39.9549 26.3583 40.5158 26.1635 40.9892 25.82C41.4624 25.4766 41.8276 24.9995 42.04 24.4471C42.7417 23.0416 43.0963 21.4816 43.0729 19.9035V19.576H54.5901V20.1572C54.5992 21.8649 54.3553 23.5643 53.8671 25.1974C53.3895 26.7501 52.6444 28.203 51.6669 29.4874C50.6819 30.7598 49.4236 31.783 47.9897 32.4777C46.4232 33.2133 44.7135 33.5746 42.9903 33.5343H25.4306V19.576H36.0594L36.0077 26.3808ZM0.630068 24.669C1.64622 25.2998 2.77221 25.7232 3.94578 25.9159C5.4141 26.3063 6.92213 26.5191 8.43897 26.5499C10.2466 26.5499 11.1453 26.1906 11.1453 25.4932C11.084 25.1033 10.9197 24.7379 10.6702 24.4366C10.2696 23.9032 9.7842 23.4423 9.23437 23.0735C7.71294 22.027 6.27604 20.8575 4.93741 19.576H18.5926C19.4499 20.2647 20.2202 21.0598 20.8858 21.9429C21.5845 22.8296 22.0153 23.9055 22.1252 25.0389V25.7362C22.1252 28.7019 21.0613 30.8152 18.9335 32.0762C16.4622 33.4359 13.6809 34.0962 10.8767 33.9887C9.8438 33.9887 8.8109 33.9253 7.77794 33.8196C6.74503 33.7139 5.62947 33.5343 4.49326 33.3547L2.03489 32.9109L0.630068 24.669ZM61.5724 18.4454L61.5105 18.382C59.0521 15.9834 57.8232 13.701 57.8232 11.556C57.8232 9.58361 58.8563 7.82254 60.9219 6.27279C63.2602 4.68474 66.0296 3.89331 68.8342 4.01156C69.759 4.01226 70.6832 4.06518 71.6021 4.17006C72.5321 4.26516 73.6682 4.40252 74.9286 4.58215C76.1884 4.76178 77.087 4.85688 77.5315 4.90971L78.8021 14.1026C77.7765 13.2913 76.6335 12.6495 75.4136 12.2006C74.2344 11.9232 73.0295 11.7779 71.8193 11.7673C71.1128 11.7359 70.4079 11.8621 69.7537 12.1372C69.2264 12.3908 68.958 12.7078 68.958 13.0988C68.958 13.6588 69.4746 14.3139 70.4868 15.0853C72.6421 16.5645 74.1709 17.6529 75.0727 18.3503L75.166 18.4243L61.5724 18.4454ZM43.1143 18.4454V18.3292C43.0849 16.9316 42.757 15.5576 42.1536 14.3033C41.9295 13.7418 41.5482 13.2607 41.0575 12.9204C40.5667 12.5801 39.9886 12.3958 39.3957 12.3908H36.0491V18.4454H25.379V4.63499H42.9387C45.1202 4.59447 47.2555 5.28055 49.0226 6.58978C50.7831 7.91601 52.1693 9.695 53.0407 11.7462C53.9551 13.8307 54.4636 16.0774 54.5383 18.3608V18.4454H43.1143ZM3.74952 18.4454L3.53258 18.2235C1.17752 15.8883 0 13.6588 0 11.556C0 9.4533 1.03293 7.8155 3.09877 6.27279C5.43726 4.68474 8.20653 3.89331 11.011 4.01156C11.9359 4.01198 12.8601 4.0649 13.7792 4.17006C14.7089 4.26516 15.8451 4.40252 17.1156 4.58215C18.3861 4.76178 19.2641 4.85688 19.7082 4.90971L20.8858 14.1976C19.8847 13.3325 18.7456 12.6498 17.5184 12.1795C16.3393 11.9014 15.1339 11.7562 13.9239 11.7462C13.2345 11.7223 12.5479 11.8484 11.9097 12.1161C11.3828 12.3696 11.1143 12.6866 11.1143 13.0776C11.1143 13.6377 11.6307 14.2927 12.643 15.0641C14.7088 16.4906 16.2273 17.5472 17.1363 18.234L17.2292 18.308L17.3635 18.4137L3.74952 18.4454ZM58.4945 24.669C59.5153 25.2975 60.6444 25.7207 61.8205 25.9159C63.2884 26.3077 64.797 26.5205 66.314 26.5499C68.1112 26.5499 69.0098 26.1977 69.0098 25.4932C68.9511 25.1025 68.7862 24.7364 68.5343 24.4366C68.1352 23.9056 67.6539 23.4451 67.1091 23.0735C65.5867 22.0242 64.1465 20.8548 62.8018 19.576H76.4568C77.3202 20.2617 78.094 21.057 78.7604 21.9429C79.4552 22.8321 79.8853 23.9067 80 25.0389V25.7362C80 28.7054 78.9669 30.8293 76.8085 32.0762C74.3363 33.4335 71.5551 34.0936 68.7515 33.9887C67.7185 33.9887 66.6854 33.9253 65.6529 33.8196C64.6198 33.7139 63.4939 33.5343 62.3578 33.3547L59.9096 32.9109L58.4945 24.669Z" fill="white"/>
<path d="M111 1.5L111 36.5" stroke="white" stroke-width="1.2" stroke-linecap="round"/>
<path d="M148.617 25.7373C145.057 25.7373 142.807 23.1973 142.807 19.1543C142.807 15.1377 145.075 12.5801 148.617 12.5801C151.412 12.5801 153.547 14.2764 153.969 16.8076H151.992C151.579 15.3047 150.26 14.3291 148.617 14.3291C146.314 14.3291 144.82 16.2188 144.82 19.1543C144.82 22.1162 146.296 23.9883 148.625 23.9883C150.322 23.9883 151.543 23.1621 151.992 21.7471H153.969C153.424 24.2607 151.464 25.7373 148.617 25.7373ZM158.113 25.5H156.241V16.2539H158.113V22.7314H158.183L162.454 16.2539H164.327V25.5H162.454V19.0049H162.384L158.113 25.5ZM174.798 19.2158H172.97C172.724 18.3633 172.021 17.6689 170.843 17.6689C169.375 17.6689 168.417 18.9258 168.417 20.877C168.417 22.8809 169.384 24.085 170.861 24.085C171.986 24.085 172.724 23.5225 172.988 22.5557H174.816C174.543 24.4102 173.023 25.6758 170.843 25.6758C168.198 25.6758 166.493 23.8389 166.493 20.877C166.493 17.9766 168.198 16.0869 170.826 16.0869C173.111 16.0869 174.535 17.5107 174.798 19.2158ZM183.723 16.2539V17.7568H180.823V25.5H178.933V17.7568H176.033V16.2539H183.723ZM189.352 17.6162C188.025 17.6162 187.093 18.627 186.996 20.0244H191.619C191.575 18.6094 190.679 17.6162 189.352 17.6162ZM191.611 22.7842H193.412C193.149 24.4717 191.549 25.6758 189.431 25.6758C186.715 25.6758 185.072 23.8389 185.072 20.9209C185.072 18.0205 186.741 16.0869 189.352 16.0869C191.918 16.0869 193.518 17.8975 193.518 20.7012V21.3516H186.988V21.4658C186.988 23.0742 187.954 24.1377 189.475 24.1377C190.556 24.1377 191.356 23.5928 191.611 22.7842ZM197.512 25.5H195.684V16.2539H198.066L201.028 23.0303H201.098L204.077 16.2539H206.406V25.5H204.561V19.084H204.499L201.731 25.1396H200.342L197.573 19.084H197.512V25.5ZM217.221 25.5V16.2539H219.102V25.5H217.221ZM212.475 20.5957H210.875V24.0059H212.475C213.565 24.0059 214.268 23.3203 214.268 22.3008C214.268 21.2725 213.556 20.5957 212.475 20.5957ZM208.986 25.5V16.2539H210.875V19.1104H212.642C214.778 19.1104 216.157 20.3496 216.157 22.3008C216.157 24.2607 214.778 25.5 212.642 25.5H208.986ZM229.129 24.1553C230.456 24.1553 231.493 23.2412 231.493 22.0371V21.3076L229.217 21.4482C228.083 21.5273 227.442 22.0283 227.442 22.8193C227.442 23.6279 228.109 24.1553 229.129 24.1553ZM228.602 25.6582C226.791 25.6582 225.526 24.5332 225.526 22.8721C225.526 21.2549 226.765 20.2617 228.962 20.1387L231.493 19.9893V19.2773C231.493 18.249 230.799 17.6338 229.639 17.6338C228.54 17.6338 227.855 18.1611 227.688 18.9873H225.895C226 17.3174 227.424 16.0869 229.709 16.0869C231.95 16.0869 233.383 17.2734 233.383 19.1279V25.5H231.564V23.9795H231.52C230.984 25.0078 229.815 25.6582 228.602 25.6582ZM241.991 25.5V21.4746H237.808V25.5H235.918V16.2539H237.808V19.9805H241.991V16.2539H243.881V25.5H241.991ZM253.509 16.2539V17.7568H250.608V25.5H248.719V17.7568H245.818V16.2539H253.509ZM257.31 25.5H255.438V16.2539H257.31V22.7314H257.38L261.651 16.2539H263.523V25.5H261.651V19.0049H261.581L257.31 25.5ZM270.084 25.6758C267.438 25.6758 265.698 23.8564 265.698 20.877C265.698 17.9062 267.447 16.0869 270.084 16.0869C272.721 16.0869 274.47 17.9062 274.47 20.877C274.47 23.8564 272.729 25.6758 270.084 25.6758ZM270.084 24.1113C271.578 24.1113 272.536 22.9336 272.536 20.877C272.536 18.8291 271.569 17.6514 270.084 17.6514C268.599 17.6514 267.632 18.8291 267.632 20.877C267.632 22.9336 268.599 24.1113 270.084 24.1113ZM280.767 25.6758C277.875 25.6758 276.31 23.7861 276.31 20.1299C276.31 14.9971 277.805 12.9141 281.32 12.791L282.146 12.7646C283.14 12.7207 284.142 12.5361 284.563 12.3076V13.8809C284.326 14.1006 283.386 14.3291 282.252 14.373L281.443 14.3994C278.974 14.4873 278.191 15.5947 277.849 18.2051H277.919C278.508 17.1152 279.624 16.5176 281.074 16.5176C283.57 16.5176 285.17 18.2578 285.17 20.9824C285.17 23.8916 283.491 25.6758 280.767 25.6758ZM280.749 24.085C282.313 24.085 283.227 22.9775 283.227 21.0088C283.227 19.1367 282.313 18.0645 280.749 18.0645C279.176 18.0645 278.253 19.1367 278.253 21.0088C278.253 22.9775 279.167 24.085 280.749 24.085ZM289.806 21.29C289.63 23.9092 288.971 25.5879 286.896 25.5879C286.589 25.5879 286.369 25.5352 286.255 25.4912V23.8213C286.343 23.8477 286.518 23.8916 286.756 23.8916C287.652 23.8916 287.969 22.8193 288.074 21.2109L288.391 16.2539H294.798V25.5H292.908V17.7568H290.06L289.806 21.29ZM301.253 17.6162C299.926 17.6162 298.994 18.627 298.897 20.0244H303.52C303.476 18.6094 302.58 17.6162 301.253 17.6162ZM303.512 22.7842H305.313C305.05 24.4717 303.45 25.6758 301.332 25.6758C298.616 25.6758 296.973 23.8389 296.973 20.9209C296.973 18.0205 298.642 16.0869 301.253 16.0869C303.819 16.0869 305.419 17.8975 305.419 20.7012V21.3516H298.889V21.4658C298.889 23.0742 299.855 24.1377 301.376 24.1377C302.457 24.1377 303.257 23.5928 303.512 22.7842ZM313.579 23.9971V17.7568H310.362L310.107 21.29C310.037 22.3799 309.808 23.3291 309.387 23.9268V23.9971H313.579ZM308.323 27.9258H306.574V23.9971H307.321C307.998 23.5752 308.305 22.459 308.393 21.2109L308.727 16.2539H315.469V23.9971H316.901V27.9258H315.143V25.5H308.323V27.9258ZM322.6 17.6162C321.273 17.6162 320.342 18.627 320.245 20.0244H324.868C324.824 18.6094 323.928 17.6162 322.6 17.6162ZM324.859 22.7842H326.661C326.397 24.4717 324.798 25.6758 322.679 25.6758C319.964 25.6758 318.32 23.8389 318.32 20.9209C318.32 18.0205 319.99 16.0869 322.6 16.0869C325.167 16.0869 326.766 17.8975 326.766 20.7012V21.3516H320.236V21.4658C320.236 23.0742 321.203 24.1377 322.723 24.1377C323.804 24.1377 324.604 23.5928 324.859 22.7842ZM335.006 25.5V21.4746H330.822V25.5H328.932V16.2539H330.822V19.9805H335.006V16.2539H336.895V25.5H335.006ZM343.368 17.6162C342.041 17.6162 341.109 18.627 341.012 20.0244H345.635C345.591 18.6094 344.695 17.6162 343.368 17.6162ZM345.627 22.7842H347.428C347.165 24.4717 345.565 25.6758 343.447 25.6758C340.731 25.6758 339.088 23.8389 339.088 20.9209C339.088 18.0205 340.757 16.0869 343.368 16.0869C345.934 16.0869 347.534 17.8975 347.534 20.7012V21.3516H341.004V21.4658C341.004 23.0742 341.97 24.1377 343.491 24.1377C344.572 24.1377 345.372 23.5928 345.627 22.7842ZM355.773 25.5V21.4746H351.589V25.5H349.7V16.2539H351.589V19.9805H355.773V16.2539H357.663V25.5H355.773ZM362.131 25.5H360.259V16.2539H362.131V22.7314H362.202L366.473 16.2539H368.345V25.5H366.473V19.0049H366.403L362.131 25.5ZM374.431 20.8682H376.11V17.748H374.431C373.35 17.748 372.656 18.3633 372.656 19.3652C372.656 20.2441 373.359 20.8682 374.431 20.8682ZM376.11 25.5V22.3271H374.704L372.462 25.5H370.318L372.84 22.002C371.557 21.624 370.766 20.666 370.766 19.374C370.766 17.4492 372.172 16.2539 374.335 16.2539H377.973V25.5H376.11Z" fill="white"/>
</svg>
