<svg width="32" height="32" viewBox="0 0 32 32" fill="none" xmlns="http://www.w3.org/2000/svg">
<circle cx="16" cy="16" r="16" fill="#38A253"/>
<path fill-rule="evenodd" clip-rule="evenodd" d="M11.4234 9.03697C11.084 9.11059 11.0187 9.16166 10.1316 10.0463C9.35749 10.8184 9.29762 10.8851 9.2068 11.0772C9.05716 11.3937 9.01981 11.5656 9.00361 12.0131C8.98724 12.4649 9.02426 12.7635 9.16116 13.2832C9.98588 16.4144 13.6825 20.5324 17.2207 22.2615C18.2699 22.7743 19.0621 22.9973 19.8433 23C20.3215 23.0016 20.5634 22.9533 20.8948 22.7903C21.1081 22.6853 21.1643 22.6356 21.9346 21.8683C22.7972 21.0091 22.8488 20.9441 22.9572 20.58C23.0143 20.3883 23.0143 20.0287 22.9572 19.837C22.8589 19.5067 22.8188 19.4587 21.7278 18.3646C21.152 17.7871 20.6068 17.262 20.5161 17.1977C19.9713 16.811 19.2717 16.8646 18.8159 17.328C18.678 17.4683 18.6249 17.5504 18.5296 17.771C18.4653 17.9199 18.3793 18.0869 18.3384 18.142C18.076 18.4965 17.5693 18.7223 17.1383 18.6767C16.4957 18.6087 15.537 18.0298 14.7248 17.2194C13.7416 16.2384 13.1618 15.1097 13.3032 14.4522C13.369 14.1461 13.5846 13.8257 13.8395 13.6551C13.9017 13.6134 14.033 13.5452 14.1312 13.5035C14.4164 13.3824 14.4866 13.3426 14.619 13.2273C15.0759 12.8294 15.1759 12.0844 14.8433 11.5563C14.7454 11.4009 12.8518 9.4906 12.6207 9.31419C12.4366 9.17354 12.1948 9.06522 11.9772 9.0258C11.771 8.98845 11.6344 8.99121 11.4234 9.03697Z" fill="#F9F9F9"/>
</svg>
