<svg width="40" height="40" viewBox="0 0 40 40" fill="none" xmlns="http://www.w3.org/2000/svg">
<circle cx="20" cy="20" r="20" fill="#2E3E4B"/>
<path d="M20 12C21.8565 12 23.637 12.7375 24.9497 14.0503C26.2625 15.363 27 17.1435 27 19C27 19.2652 27.1054 19.5196 27.2929 19.7071C27.4804 19.8946 27.7348 20 28 20C28.2652 20 28.5196 19.8946 28.7071 19.7071C28.8946 19.5196 29 19.2652 29 19C29 16.613 28.0518 14.3239 26.364 12.636C24.6761 10.9482 22.3869 10 20 10C19.7348 10 19.4804 10.1054 19.2929 10.2929C19.1054 10.4804 19 10.7348 19 11C19 11.2652 19.1054 11.5196 19.2929 11.7071C19.4804 11.8946 19.7348 12 20 12ZM28.75 23.91C28.695 23.7495 28.6 23.6056 28.4741 23.4919C28.3481 23.3781 28.1953 23.2984 28.03 23.26L22.03 21.89C21.8671 21.8531 21.6976 21.8575 21.5369 21.9029C21.3762 21.9484 21.2294 22.0333 21.11 22.15C20.97 22.28 20.96 22.29 20.31 23.53C18.1532 22.5362 16.425 20.8009 15.44 18.64C16.71 18 16.72 18 16.85 17.85C16.9667 17.7306 17.0516 17.5838 17.0971 17.4231C17.1425 17.2624 17.1469 17.0929 17.11 16.93L15.74 11C15.7016 10.8347 15.6219 10.6819 15.5081 10.5559C15.3944 10.43 15.2505 10.335 15.09 10.28C14.8565 10.1966 14.6153 10.1363 14.37 10.1C14.1172 10.0414 13.8593 10.0079 13.6 10C12.38 10 11.21 10.4846 10.3473 11.3473C9.48464 12.21 9 13.38 9 14.6C9.00529 18.6827 10.6295 22.5967 13.5164 25.4836C16.4033 28.3705 20.3173 29.9947 24.4 30C25.0041 30 25.6022 29.881 26.1603 29.6498C26.7184 29.4187 27.2255 29.0798 27.6527 28.6527C28.0798 28.2255 28.4187 27.7184 28.6498 27.1603C28.881 26.6022 29 26.0041 29 25.4C29.0003 25.1455 28.9802 24.8913 28.94 24.64C28.898 24.3916 28.8344 24.1474 28.75 23.91Z" fill="white"/>
</svg>
