<svg width="80" height="30" viewBox="0 0 80 30" fill="none" xmlns="http://www.w3.org/2000/svg">
<path fill-rule="evenodd" clip-rule="evenodd" d="M36.0077 22.3808H39.375C39.9549 22.3583 40.5158 22.1635 40.9892 21.82C41.4624 21.4766 41.8276 20.9995 42.04 20.4471C42.7417 19.0416 43.0963 17.4816 43.0729 15.9035V15.576H54.5901V16.1572C54.5992 17.8649 54.3553 19.5643 53.8671 21.1974C53.3895 22.7501 52.6444 24.203 51.6669 25.4874C50.6819 26.7598 49.4236 27.783 47.9897 28.4777C46.4232 29.2133 44.7135 29.5746 42.9903 29.5343H25.4306V15.576H36.0594L36.0077 22.3808ZM0.630068 20.669C1.64622 21.2998 2.77221 21.7232 3.94578 21.9159C5.4141 22.3063 6.92213 22.5191 8.43897 22.5499C10.2466 22.5499 11.1453 22.1906 11.1453 21.4932C11.084 21.1033 10.9197 20.7379 10.6702 20.4366C10.2696 19.9032 9.7842 19.4423 9.23437 19.0735C7.71294 18.027 6.27604 16.8575 4.93741 15.576H18.5926C19.4499 16.2647 20.2202 17.0598 20.8858 17.9429C21.5845 18.8296 22.0153 19.9055 22.1252 21.0389V21.7362C22.1252 24.7019 21.0613 26.8152 18.9335 28.0762C16.4622 29.4359 13.6809 30.0962 10.8767 29.9887C9.8438 29.9887 8.8109 29.9253 7.77794 29.8196C6.74503 29.7139 5.62947 29.5343 4.49326 29.3547L2.03489 28.9109L0.630068 20.669ZM61.5724 14.4454L61.5105 14.382C59.0521 11.9834 57.8232 9.70105 57.8232 7.55603C57.8232 5.58361 58.8563 3.82254 60.9219 2.27279C63.2602 0.684737 66.0296 -0.106692 68.8342 0.0115602C69.759 0.0122644 70.6832 0.065177 71.6021 0.170057C72.5321 0.265156 73.6682 0.402519 74.9286 0.582149C76.1884 0.761778 77.087 0.85688 77.5315 0.909711L78.8021 10.1026C77.7765 9.29127 76.6335 8.64945 75.4136 8.20059C74.2344 7.92316 73.0295 7.77787 71.8193 7.76734C71.1128 7.73589 70.4079 7.86207 69.7537 8.1372C69.2264 8.39076 68.958 8.70777 68.958 9.09875C68.958 9.65879 69.4746 10.3139 70.4868 11.0853C72.6421 12.5645 74.1709 13.6529 75.0727 14.3503L75.166 14.4243L61.5724 14.4454ZM43.1143 14.4454V14.3292C43.0849 12.9316 42.757 11.5576 42.1536 10.3033C41.9295 9.74183 41.5482 9.2607 41.0575 8.92038C40.5667 8.58006 39.9886 8.39583 39.3957 8.39081H36.0491V14.4454H25.379V0.634986H42.9387C45.1202 0.594473 47.2555 1.28055 49.0226 2.58978C50.7831 3.91601 52.1693 5.695 53.0407 7.74621C53.9551 9.83072 54.4636 12.0774 54.5383 14.3608V14.4454H43.1143ZM3.74952 14.4454L3.53258 14.2235C1.17752 11.8883 0 9.65879 0 7.55603C0 5.4533 1.03293 3.8155 3.09877 2.27279C5.43726 0.684737 8.20653 -0.106692 11.011 0.0115602C11.9359 0.0119839 12.8601 0.0648975 13.7792 0.170057C14.7089 0.265156 15.8451 0.402519 17.1156 0.582149C18.3861 0.761778 19.2641 0.85688 19.7082 0.909711L20.8858 10.1976C19.8847 9.3325 18.7456 8.64983 17.5184 8.17946C16.3393 7.90143 15.1339 7.7562 13.9239 7.74621C13.2345 7.72235 12.5479 7.84842 11.9097 8.11607C11.3828 8.36963 11.1143 8.68664 11.1143 9.07763C11.1143 9.63766 11.6307 10.2927 12.643 11.0641C14.7088 12.4906 16.2273 13.5472 17.1363 14.234L17.2292 14.308L17.3635 14.4137L3.74952 14.4454ZM58.4945 20.669C59.5153 21.2975 60.6444 21.7207 61.8205 21.9159C63.2884 22.3077 64.797 22.5205 66.314 22.5499C68.1112 22.5499 69.0098 22.1977 69.0098 21.4932C68.9511 21.1025 68.7862 20.7364 68.5343 20.4366C68.1352 19.9056 67.6539 19.4451 67.1091 19.0735C65.5867 18.0242 64.1465 16.8548 62.8018 15.576H76.4568C77.3202 16.2617 78.094 17.057 78.7604 17.9429C79.4552 18.8321 79.8853 19.9067 80 21.0389V21.7362C80 24.7054 78.9669 26.8293 76.8085 28.0762C74.3363 29.4335 71.5551 30.0936 68.7515 29.9887C67.7185 29.9887 66.6854 29.9253 65.6529 29.8196C64.6198 29.7139 63.4939 29.5343 62.3578 29.3547L59.9096 28.9109L58.4945 20.669Z" fill="white" style="fill:white;fill-opacity:1;"/>
</svg>
