<svg width="32" height="32" viewBox="0 0 32 32" fill="none" xmlns="http://www.w3.org/2000/svg">
<path fill-rule="evenodd" clip-rule="evenodd" d="M14.8725 0.021019C14.7519 0.035042 14.3854 0.0766101 14.0581 0.11342C11.3633 0.416417 8.5935 1.53744 6.30382 3.25194C5.55744 3.81079 4.18089 5.1416 3.56444 5.90041C2.07883 7.72884 0.874165 10.1886 0.37585 12.4111C0.069407 13.7781 0 14.4426 0 16.0107C0 17.5789 0.069407 18.2434 0.37585 19.6104C0.874478 21.8341 2.08177 24.2986 3.56531 26.121C4.14456 26.8326 5.28082 27.9592 5.99174 28.5267C7.78912 29.9615 10.22 31.1372 12.3981 31.6252C13.708 31.9186 14.4899 32 16 32C18.662 32 20.7029 31.5311 23.0472 30.3809C25.6593 29.0993 27.7436 27.2737 29.3757 24.8377C30.333 23.4088 31.2509 21.2747 31.6241 19.6104C31.9306 18.2434 32 17.5789 32 16.0107C32 14.4426 31.9306 13.7781 31.6241 12.4111C31.1255 10.1874 29.9182 7.72283 28.4347 5.90041C27.8554 5.18887 26.7192 4.06227 26.0083 3.49478C23.8305 1.7563 21.1424 0.585507 18.3674 0.166883C17.5757 0.0474373 15.419 -0.0425853 14.8725 0.021019ZM17.0933 4.89927C18.7805 5.25641 20.1776 6.40642 20.8708 8.00874C21.1642 8.6871 21.2768 9.27813 21.2741 10.1261C21.2694 11.6049 20.7247 12.8638 19.6423 13.8973C19.0608 14.4524 18.4459 14.833 17.7347 15.0781C14.5095 16.189 11.0913 14.0064 10.7398 10.6116C10.4633 7.94031 12.2535 5.47089 14.8795 4.90158C15.4133 4.78583 16.5519 4.78464 17.0933 4.89927ZM20.4162 18.1273C22.0405 18.5782 23.2575 19.599 23.9499 21.0913C24.5743 22.437 24.6077 23.7431 24.039 24.5733C23.5687 25.2598 21.8961 26.3733 20.4162 26.9851C17.7743 28.0773 14.4343 28.1019 11.7404 27.0489C10.2682 26.4735 8.35465 25.226 7.94008 24.5714C7.45167 23.8001 7.42222 22.788 7.85182 21.5367C8.483 19.6982 10.1749 18.3127 12.1475 18.019C12.3543 17.9883 14.1865 17.9688 16.2192 17.9756C19.8262 17.9879 19.9271 17.9915 20.4162 18.1273Z" fill="#38A253"/>
</svg>
